<svg xmlns="http://www.w3.org/2000/svg" xmlns:xlink="http://www.w3.org/1999/xlink" version="1.1" width="256" height="256" viewBox="0 0 256 256" xml:space="preserve">
<desc>Created with Fabric.js 1.7.22</desc>
<defs>
</defs>
<g transform="translate(128 128) scale(0.72 0.72)" style="">
	<g style="stroke: none; stroke-width: 0; stroke-dasharray: none; stroke-linecap: butt; stroke-linejoin: miter; stroke-miterlimit: 10; fill: none; fill-rule: nonzero; opacity: 1;" transform="translate(-175.05 -175.05) scale(3.89 3.89)" >
	<path d="M 76.887 60.514 h -2.579 c -0.828 0 -1.5 -0.672 -1.5 -1.5 s 0.672 -1.5 1.5 -1.5 h 2.579 C 82.463 57.514 87 52.977 87 47.4 c 0 -5.335 -4.179 -9.763 -9.514 -10.08 l -1.581 -0.094 l 0.18 -1.573 c 0.1 -0.872 0.147 -1.652 0.147 -2.385 c 0 -11.438 -9.305 -20.742 -20.742 -20.742 c -7.165 0 -13.729 3.641 -17.559 9.74 l -0.745 1.186 l -1.234 -0.662 c -2.296 -1.231 -4.89 -1.882 -7.503 -1.882 c -8.491 0 -15.457 6.65 -15.858 15.14 l -0.057 1.197 l -1.18 0.209 C 6.514 38.313 3 42.497 3 47.4 c 0 5.576 4.537 10.113 10.113 10.113 h 3.069 c 0.829 0 1.5 0.672 1.5 1.5 s -0.671 1.5 -1.5 1.5 h -3.069 C 5.883 60.514 0 54.631 0 47.4 c 0 -5.966 4.007 -11.109 9.683 -12.645 c 1.025 -9.536 9.057 -16.849 18.766 -16.849 c 2.648 0 5.282 0.563 7.693 1.637 c 4.46 -6.298 11.597 -10.019 19.349 -10.019 c 13.092 0 23.742 10.651 23.742 23.742 c 0 0.401 -0.013 0.813 -0.037 1.239 C 85.365 35.606 90 41 90 47.4 C 90 54.631 84.117 60.514 76.887 60.514 z" style="stroke: none; stroke-width: 1; stroke-dasharray: none; stroke-linecap: butt; stroke-linejoin: miter; stroke-miterlimit: 10; fill: rgb(37,50,74); fill-rule: nonzero; opacity: 1;" transform=" matrix(1 0 0 1 0 0) " stroke-linecap="round" />
	<path d="M 67.472 34.742 c -0.828 0 -1.5 -0.671 -1.5 -1.5 c 0 -5.78 -4.702 -10.482 -10.481 -10.482 c -0.828 0 -1.5 -0.671 -1.5 -1.5 s 0.672 -1.5 1.5 -1.5 c 7.434 0 13.481 6.048 13.481 13.482 C 68.972 34.071 68.3 34.742 67.472 34.742 z" style="stroke: none; stroke-width: 1; stroke-dasharray: none; stroke-linecap: butt; stroke-linejoin: miter; stroke-miterlimit: 10; fill: rgb(37,51,75); fill-rule: nonzero; opacity: 1;" transform=" matrix(1 0 0 1 0 0) " stroke-linecap="round" />
	<path d="M 21.859 37.451 c -0.024 0 -0.048 0 -0.072 -0.001 c -0.828 -0.04 -1.467 -0.742 -1.428 -1.569 c 0.205 -4.33 3.758 -7.721 8.089 -7.721 c 0.829 0 1.5 0.671 1.5 1.5 s -0.671 1.5 -1.5 1.5 c -2.727 0 -4.963 2.136 -5.092 4.862 C 23.319 36.825 22.655 37.451 21.859 37.451 z" style="stroke: none; stroke-width: 1; stroke-dasharray: none; stroke-linecap: butt; stroke-linejoin: miter; stroke-miterlimit: 10; fill: rgb(37,51,75); fill-rule: nonzero; opacity: 1;" transform=" matrix(1 0 0 1 0 0) " stroke-linecap="round" />
	<path d="M 38.029 80.075 c -0.173 0 -0.349 -0.029 -0.52 -0.093 c -2.961 -1.095 -5.579 -2.767 -7.782 -4.97 c -4.08 -4.08 -6.327 -9.504 -6.327 -15.273 s 2.247 -11.193 6.327 -15.273 c 8.422 -8.422 22.126 -8.421 30.547 0 c 4.846 4.846 7.116 11.788 6.075 18.568 c -0.125 0.819 -0.896 1.377 -1.71 1.255 c -0.819 -0.126 -1.381 -0.892 -1.255 -1.71 c 0.896 -5.841 -1.059 -11.818 -5.231 -15.991 c -7.252 -7.252 -19.053 -7.253 -26.305 0 c -3.513 3.513 -5.448 8.184 -5.448 13.151 s 1.935 9.639 5.448 13.152 c 1.895 1.895 4.149 3.334 6.701 4.276 c 0.777 0.287 1.174 1.15 0.887 1.927 C 39.212 79.701 38.639 80.075 38.029 80.075 z" style="stroke: none; stroke-width: 1; stroke-dasharray: none; stroke-linecap: butt; stroke-linejoin: miter; stroke-miterlimit: 10; fill: rgb(64,99,163); fill-rule: nonzero; opacity: 1;" transform=" matrix(1 0 0 1 0 0) " stroke-linecap="round" />
	<path d="M 63.207 68.505 L 50.89 60.891 c 0.186 -0.562 0.291 -1.16 0.291 -1.784 c 0 -3.135 -2.55 -5.685 -5.684 -5.685 s -5.684 2.55 -5.684 5.685 c 0 3.134 2.55 5.684 5.684 5.684 c 1.426 0 2.727 -0.532 3.726 -1.402 l 12.406 7.669 c 0.246 0.151 0.519 0.224 0.788 0.224 c 0.502 0 0.993 -0.252 1.277 -0.711 C 64.13 69.865 63.911 68.94 63.207 68.505 z M 45.497 61.791 c -1.48 0 -2.684 -1.204 -2.684 -2.684 c 0 -1.48 1.204 -2.685 2.684 -2.685 s 2.684 1.204 2.684 2.685 C 48.181 60.587 46.977 61.791 45.497 61.791 z" style="stroke: none; stroke-width: 1; stroke-dasharray: none; stroke-linecap: butt; stroke-linejoin: miter; stroke-miterlimit: 10; fill: rgb(64,99,163); fill-rule: nonzero; opacity: 1;" transform=" matrix(1 0 0 1 0 0) " stroke-linecap="round" />
	<path d="M 57.905 60.907 c -0.823 0 -1.493 -0.664 -1.5 -1.488 c -0.024 -3.01 -1.21 -5.841 -3.34 -7.971 c -2.154 -2.154 -5.019 -3.341 -8.065 -3.341 s -5.911 1.187 -8.065 3.341 c -0.585 0.586 -1.535 0.586 -2.121 0 s -0.586 -1.535 0 -2.121 c 2.721 -2.722 6.338 -4.22 10.187 -4.22 c 3.848 0 7.466 1.498 10.187 4.22 c 2.689 2.689 4.188 6.266 4.219 10.068 c 0.007 0.828 -0.659 1.505 -1.488 1.512 C 57.913 60.907 57.909 60.907 57.905 60.907 z" style="stroke: none; stroke-width: 1; stroke-dasharray: none; stroke-linecap: butt; stroke-linejoin: miter; stroke-miterlimit: 10; fill: rgb(64,99,163); fill-rule: nonzero; opacity: 1;" transform=" matrix(1 0 0 1 0 0) " stroke-linecap="round" />
</g>
</g>
</svg>