<svg xmlns="http://www.w3.org/2000/svg" xmlns:xlink="http://www.w3.org/1999/xlink" version="1.1" width="256" height="256" viewBox="0 0 256 256" xml:space="preserve">
<desc>Created with Fabric.js 1.7.22</desc>
<defs>
</defs>
<g transform="translate(128 128) scale(0.72 0.72)" style="">
	<g style="stroke: none; stroke-width: 0; stroke-dasharray: none; stroke-linecap: butt; stroke-linejoin: miter; stroke-miterlimit: 10; fill: none; fill-rule: nonzero; opacity: 1;" transform="translate(-175.05 -175.05) scale(3.89 3.89)" >
	<path d="M 51.18 80.449 H 38.82 c -3.498 0 -6.343 -2.846 -6.343 -6.343 V 43.592 c 0 -3.498 2.845 -6.343 6.343 -6.343 h 12.36 c 3.497 0 6.343 2.845 6.343 6.343 v 30.514 C 57.522 77.604 54.677 80.449 51.18 80.449 z M 38.82 40.25 c -1.843 0 -3.343 1.5 -3.343 3.343 v 30.514 c 0 1.843 1.5 3.343 3.343 3.343 h 12.36 c 1.843 0 3.343 -1.5 3.343 -3.343 V 43.592 c 0 -1.843 -1.5 -3.343 -3.343 -3.343 H 38.82 z" style="stroke: none; stroke-width: 1; stroke-dasharray: none; stroke-linecap: butt; stroke-linejoin: miter; stroke-miterlimit: 10; fill: rgb(64,100,163); fill-rule: nonzero; opacity: 1;" transform=" matrix(1 0 0 1 0 0) " stroke-linecap="round" />
	<path d="M 45.416 73.899 h -0.831 c -0.829 0 -1.5 -0.672 -1.5 -1.5 s 0.671 -1.5 1.5 -1.5 h 0.831 c 0.829 0 1.5 0.672 1.5 1.5 S 46.244 73.899 45.416 73.899 z" style="stroke: none; stroke-width: 1; stroke-dasharray: none; stroke-linecap: butt; stroke-linejoin: miter; stroke-miterlimit: 10; fill: rgb(64,100,163); fill-rule: nonzero; opacity: 1;" transform=" matrix(1 0 0 1 0 0) " stroke-linecap="round" />
	<path d="M 49.666 46.988 h -9.332 c -0.829 0 -1.5 -0.671 -1.5 -1.5 s 0.671 -1.5 1.5 -1.5 h 9.332 c 0.828 0 1.5 0.671 1.5 1.5 S 50.494 46.988 49.666 46.988 z" style="stroke: none; stroke-width: 1; stroke-dasharray: none; stroke-linecap: butt; stroke-linejoin: miter; stroke-miterlimit: 10; fill: rgb(64,100,163); fill-rule: nonzero; opacity: 1;" transform=" matrix(1 0 0 1 0 0) " stroke-linecap="round" />
	<path d="M 49.666 53.674 h -9.332 c -0.829 0 -1.5 -0.672 -1.5 -1.5 s 0.671 -1.5 1.5 -1.5 h 9.332 c 0.828 0 1.5 0.672 1.5 1.5 S 50.494 53.674 49.666 53.674 z" style="stroke: none; stroke-width: 1; stroke-dasharray: none; stroke-linecap: butt; stroke-linejoin: miter; stroke-miterlimit: 10; fill: rgb(64,100,163); fill-rule: nonzero; opacity: 1;" transform=" matrix(1 0 0 1 0 0) " stroke-linecap="round" />
	<path d="M 49.666 60.358 h -9.332 c -0.829 0 -1.5 -0.672 -1.5 -1.5 s 0.671 -1.5 1.5 -1.5 h 9.332 c 0.828 0 1.5 0.672 1.5 1.5 S 50.494 60.358 49.666 60.358 z" style="stroke: none; stroke-width: 1; stroke-dasharray: none; stroke-linecap: butt; stroke-linejoin: miter; stroke-miterlimit: 10; fill: rgb(64,100,163); fill-rule: nonzero; opacity: 1;" transform=" matrix(1 0 0 1 0 0) " stroke-linecap="round" />
	<path d="M 49.666 67.043 h -9.332 c -0.829 0 -1.5 -0.672 -1.5 -1.5 s 0.671 -1.5 1.5 -1.5 h 9.332 c 0.828 0 1.5 0.672 1.5 1.5 S 50.494 67.043 49.666 67.043 z" style="stroke: none; stroke-width: 1; stroke-dasharray: none; stroke-linecap: butt; stroke-linejoin: miter; stroke-miterlimit: 10; fill: rgb(64,100,163); fill-rule: nonzero; opacity: 1;" transform=" matrix(1 0 0 1 0 0) " stroke-linecap="round" />
	<path d="M 76.887 60.444 H 66.87 c -0.828 0 -1.5 -0.672 -1.5 -1.5 s 0.672 -1.5 1.5 -1.5 h 10.017 C 82.463 57.444 87 52.907 87 47.331 c 0 -5.335 -4.179 -9.764 -9.514 -10.081 l -1.581 -0.094 l 0.18 -1.573 c 0.1 -0.872 0.147 -1.652 0.147 -2.385 c 0 -11.438 -9.305 -20.742 -20.742 -20.742 c -7.165 0 -13.729 3.641 -17.559 9.741 l -0.745 1.187 l -1.235 -0.663 c -2.294 -1.231 -4.889 -1.882 -7.502 -1.882 c -8.491 0 -15.457 6.65 -15.858 15.14 l -0.057 1.196 l -1.179 0.21 C 6.514 38.244 3 42.428 3 47.331 c 0 5.576 4.537 10.113 10.113 10.113 h 10.195 c 0.829 0 1.5 0.672 1.5 1.5 s -0.671 1.5 -1.5 1.5 H 13.113 C 5.883 60.444 0 54.562 0 47.331 c 0 -5.966 4.007 -11.109 9.683 -12.645 c 1.025 -9.537 9.057 -16.849 18.766 -16.849 c 2.649 0 5.282 0.563 7.693 1.637 c 4.46 -6.299 11.596 -10.019 19.349 -10.019 c 13.092 0 23.742 10.651 23.742 23.742 c 0 0.401 -0.013 0.813 -0.037 1.239 C 85.365 35.536 90 40.93 90 47.331 C 90 54.562 84.117 60.444 76.887 60.444 z" style="stroke: none; stroke-width: 1; stroke-dasharray: none; stroke-linecap: butt; stroke-linejoin: miter; stroke-miterlimit: 10; fill: rgb(37,51,75); fill-rule: nonzero; opacity: 1;" transform=" matrix(1 0 0 1 0 0) " stroke-linecap="round" />
	<path d="M 67.472 34.672 c -0.828 0 -1.5 -0.671 -1.5 -1.5 c 0 -5.779 -4.702 -10.481 -10.481 -10.481 c -0.828 0 -1.5 -0.671 -1.5 -1.5 s 0.672 -1.5 1.5 -1.5 c 7.434 0 13.481 6.048 13.481 13.481 C 68.972 34.001 68.3 34.672 67.472 34.672 z" style="stroke: none; stroke-width: 1; stroke-dasharray: none; stroke-linecap: butt; stroke-linejoin: miter; stroke-miterlimit: 10; fill: rgb(37,51,75); fill-rule: nonzero; opacity: 1;" transform=" matrix(1 0 0 1 0 0) " stroke-linecap="round" />
	<path d="M 21.859 37.381 c -0.024 0 -0.048 0 -0.072 -0.001 c -0.828 -0.04 -1.467 -0.742 -1.428 -1.569 c 0.205 -4.33 3.758 -7.721 8.089 -7.721 c 0.829 0 1.5 0.671 1.5 1.5 s -0.671 1.5 -1.5 1.5 c -2.727 0 -4.963 2.136 -5.092 4.862 C 23.319 36.755 22.655 37.381 21.859 37.381 z" style="stroke: none; stroke-width: 1; stroke-dasharray: none; stroke-linecap: butt; stroke-linejoin: miter; stroke-miterlimit: 10; fill: rgb(37,51,75); fill-rule: nonzero; opacity: 1;" transform=" matrix(1 0 0 1 0 0) " stroke-linecap="round" />
</g>
</g>
</svg>