<svg xmlns="http://www.w3.org/2000/svg" xmlns:xlink="http://www.w3.org/1999/xlink" version="1.1" width="256" height="256" viewBox="0 0 256 256" xml:space="preserve">
<desc>Created with Fabric.js 1.7.22</desc>
<defs>
</defs>
<g transform="translate(128 128) scale(0.72 0.72)" style="">
	<g style="stroke: none; stroke-width: 0; stroke-dasharray: none; stroke-linecap: butt; stroke-linejoin: miter; stroke-miterlimit: 10; fill: none; fill-rule: nonzero; opacity: 1;" transform="translate(-175.05 -175.05) scale(3.89 3.89)" >
	<path d="M 76.887 60.047 h -2.579 c -0.828 0 -1.5 -0.672 -1.5 -1.5 s 0.672 -1.5 1.5 -1.5 h 2.579 C 82.463 57.047 87 52.51 87 46.934 c 0 -5.335 -4.179 -9.764 -9.514 -10.081 l -1.581 -0.094 l 0.18 -1.573 c 0.1 -0.872 0.147 -1.652 0.147 -2.385 c 0 -11.438 -9.305 -20.742 -20.742 -20.742 c -7.165 0 -13.729 3.641 -17.559 9.74 l -0.745 1.186 l -1.234 -0.662 c -2.296 -1.231 -4.89 -1.882 -7.503 -1.882 c -8.491 0 -15.457 6.65 -15.858 15.14 l -0.057 1.197 l -1.18 0.209 C 6.514 37.846 3 42.03 3 46.934 c 0 5.577 4.537 10.113 10.113 10.113 h 3.069 c 0.829 0 1.5 0.672 1.5 1.5 s -0.671 1.5 -1.5 1.5 h -3.069 C 5.883 60.047 0 54.164 0 46.934 c 0 -5.966 4.007 -11.11 9.683 -12.645 c 1.025 -9.536 9.057 -16.849 18.766 -16.849 c 2.648 0 5.282 0.563 7.693 1.637 c 4.46 -6.298 11.597 -10.019 19.349 -10.019 c 13.092 0 23.742 10.651 23.742 23.742 c 0 0.401 -0.013 0.813 -0.037 1.239 C 85.365 35.139 90 40.532 90 46.934 C 90 54.164 84.117 60.047 76.887 60.047 z" style="stroke: none; stroke-width: 1; stroke-dasharray: none; stroke-linecap: butt; stroke-linejoin: miter; stroke-miterlimit: 10; fill: rgb(36,49,74); fill-rule: nonzero; opacity: 1;" transform=" matrix(1 0 0 1 0 0) " stroke-linecap="round" />
	<path d="M 57.669 60.047 h -5.223 c -0.828 0 -1.5 -0.672 -1.5 -1.5 s 0.672 -1.5 1.5 -1.5 h 5.223 c 0.828 0 1.5 0.672 1.5 1.5 S 58.497 60.047 57.669 60.047 z" style="stroke: none; stroke-width: 1; stroke-dasharray: none; stroke-linecap: butt; stroke-linejoin: miter; stroke-miterlimit: 10; fill: rgb(36,49,74); fill-rule: nonzero; opacity: 1;" transform=" matrix(1 0 0 1 0 0) " stroke-linecap="round" />
	<path d="M 25.608 61.141 V 49.022 c 0 -0.829 -0.671 -1.5 -1.5 -1.5 s -1.5 0.671 -1.5 1.5 v 12.119 c -2.986 0.684 -5.223 3.358 -5.223 6.549 c 0 3.707 3.016 6.723 6.723 6.723 s 6.723 -3.016 6.723 -6.723 C 30.831 64.499 28.594 61.825 25.608 61.141 z M 24.108 71.412 c -2.053 0 -3.723 -1.67 -3.723 -3.723 s 1.67 -3.724 3.723 -3.724 s 3.723 1.671 3.723 3.724 S 26.161 71.412 24.108 71.412 z" style="stroke: none; stroke-width: 1; stroke-dasharray: none; stroke-linecap: butt; stroke-linejoin: miter; stroke-miterlimit: 10; fill: rgb(65,97,163); fill-rule: nonzero; opacity: 1;" transform=" matrix(1 0 0 1 0 0) " stroke-linecap="round" />
	<path d="M 46.5 69.198 V 35.303 c 0 -0.829 -0.671 -1.5 -1.5 -1.5 s -1.5 0.671 -1.5 1.5 v 33.895 c -2.986 0.684 -5.223 3.358 -5.223 6.549 c 0 3.707 3.016 6.723 6.723 6.723 s 6.724 -3.016 6.724 -6.723 C 51.724 72.556 49.487 69.882 46.5 69.198 z M 45 79.47 c -2.053 0 -3.723 -1.67 -3.723 -3.723 s 1.67 -3.724 3.723 -3.724 s 3.724 1.671 3.724 3.724 S 47.053 79.47 45 79.47 z" style="stroke: none; stroke-width: 1; stroke-dasharray: none; stroke-linecap: butt; stroke-linejoin: miter; stroke-miterlimit: 10; fill: rgb(65,97,163); fill-rule: nonzero; opacity: 1;" transform=" matrix(1 0 0 1 0 0) " stroke-linecap="round" />
	<path d="M 67.392 63.752 V 43.225 c 0 -0.829 -0.672 -1.5 -1.5 -1.5 s -1.5 0.671 -1.5 1.5 v 20.527 c -2.986 0.684 -5.223 3.358 -5.223 6.549 c 0 3.707 3.016 6.724 6.723 6.724 s 6.724 -3.017 6.724 -6.724 C 72.615 67.11 70.378 64.436 67.392 63.752 z M 65.892 74.024 c -2.053 0 -3.723 -1.671 -3.723 -3.724 s 1.67 -3.724 3.723 -3.724 s 3.724 1.671 3.724 3.724 S 67.944 74.024 65.892 74.024 z" style="stroke: none; stroke-width: 1; stroke-dasharray: none; stroke-linecap: butt; stroke-linejoin: miter; stroke-miterlimit: 10; fill: rgb(65,97,163); fill-rule: nonzero; opacity: 1;" transform=" matrix(1 0 0 1 0 0) " stroke-linecap="round" />
	<path d="M 36.268 60.047 h -5.223 c -0.829 0 -1.5 -0.672 -1.5 -1.5 s 0.671 -1.5 1.5 -1.5 h 5.223 c 0.829 0 1.5 0.672 1.5 1.5 S 37.097 60.047 36.268 60.047 z" style="stroke: none; stroke-width: 1; stroke-dasharray: none; stroke-linecap: butt; stroke-linejoin: miter; stroke-miterlimit: 10; fill: rgb(36,49,74); fill-rule: nonzero; opacity: 1;" transform=" matrix(1 0 0 1 0 0) " stroke-linecap="round" />
	<path d="M 67.472 34.742 c -0.828 0 -1.5 -0.671 -1.5 -1.5 c 0 -5.78 -4.702 -10.482 -10.481 -10.482 c -0.828 0 -1.5 -0.671 -1.5 -1.5 s 0.672 -1.5 1.5 -1.5 c 7.434 0 13.481 6.048 13.481 13.482 C 68.972 34.071 68.3 34.742 67.472 34.742 z" style="stroke: none; stroke-width: 1; stroke-dasharray: none; stroke-linecap: butt; stroke-linejoin: miter; stroke-miterlimit: 10; fill: rgb(37,50,74); fill-rule: nonzero; opacity: 1;" transform=" matrix(1 0 0 1 0 0) " stroke-linecap="round" />
	<path d="M 21.859 37.451 c -0.024 0 -0.048 0 -0.072 -0.001 c -0.828 -0.04 -1.467 -0.742 -1.428 -1.569 c 0.205 -4.33 3.758 -7.721 8.089 -7.721 c 0.829 0 1.5 0.671 1.5 1.5 s -0.671 1.5 -1.5 1.5 c -2.727 0 -4.963 2.136 -5.092 4.862 C 23.319 36.825 22.655 37.451 21.859 37.451 z" style="stroke: none; stroke-width: 1; stroke-dasharray: none; stroke-linecap: butt; stroke-linejoin: miter; stroke-miterlimit: 10; fill: rgb(37,50,74); fill-rule: nonzero; opacity: 1;" transform=" matrix(1 0 0 1 0 0) " stroke-linecap="round" />
</g>
</g>
</svg>